<svg width="32" height="32" viewBox="0 0 32 32" fill="none" xmlns="http://www.w3.org/2000/svg">
<path d="M4.00016 5.33331C3.29292 5.33331 2.61464 5.61426 2.11454 6.11436C1.61445 6.61446 1.3335 7.29274 1.3335 7.99998V22.6666H4.00016C4.00016 23.7275 4.42159 24.7449 5.17174 25.4951C5.92188 26.2452 6.9393 26.6666 8.00016 26.6666C9.06103 26.6666 10.0784 26.2452 10.8286 25.4951C11.5787 24.7449 12.0002 23.7275 12.0002 22.6666H20.0002C20.0002 23.7275 20.4216 24.7449 21.1717 25.4951C21.9219 26.2452 22.9393 26.6666 24.0002 26.6666C25.061 26.6666 26.0784 26.2452 26.8286 25.4951C27.5787 24.7449 28.0002 23.7275 28.0002 22.6666H30.6668V16L26.6668 10.6666H22.6668V5.33331H4.00016ZM13.3335 7.99998L18.6668 13.3333L13.3335 18.6666V14.6666H5.3335V12H13.3335V7.99998ZM22.6668 12.6666H26.0002L28.6268 16H22.6668V12.6666ZM8.00016 20.6666C8.5306 20.6666 9.0393 20.8774 9.41438 21.2524C9.78945 21.6275 10.0002 22.1362 10.0002 22.6666C10.0002 23.1971 9.78945 23.7058 9.41438 24.0809C9.0393 24.4559 8.5306 24.6666 8.00016 24.6666C7.46973 24.6666 6.96102 24.4559 6.58595 24.0809C6.21088 23.7058 6.00016 23.1971 6.00016 22.6666C6.00016 22.1362 6.21088 21.6275 6.58595 21.2524C6.96102 20.8774 7.46973 20.6666 8.00016 20.6666ZM24.0002 20.6666C24.5306 20.6666 25.0393 20.8774 25.4144 21.2524C25.7894 21.6275 26.0002 22.1362 26.0002 22.6666C26.0002 23.1971 25.7894 23.7058 25.4144 24.0809C25.0393 24.4559 24.5306 24.6666 24.0002 24.6666C23.4697 24.6666 22.961 24.4559 22.5859 24.0809C22.2109 23.7058 22.0002 23.1971 22.0002 22.6666C22.0002 22.1362 22.2109 21.6275 22.5859 21.2524C22.961 20.8774 23.4697 20.6666 24.0002 20.6666Z" fill="#F32626"/>
</svg>
