<svg width="13" height="18" viewBox="0 0 13 18" fill="none" xmlns="http://www.w3.org/2000/svg">
<path d="M6.32029 0.0833282C2.94125 0.0833282 0.208328 2.81625 0.208328 6.1953C0.208328 9.83628 4.0676 14.8568 5.65671 16.769C6.00596 17.1881 6.64336 17.1881 6.99261 16.769C8.57299 14.8568 12.4323 9.83628 12.4323 6.1953C12.4323 2.81625 9.69934 0.0833282 6.32029 0.0833282ZM6.32029 8.37814C5.74137 8.37814 5.18615 8.14816 4.77679 7.7388C4.36743 7.32944 4.13745 6.77422 4.13745 6.1953C4.13745 5.61637 4.36743 5.06115 4.77679 4.65179C5.18615 4.24243 5.74137 4.01245 6.32029 4.01245C6.89922 4.01245 7.45444 4.24243 7.8638 4.65179C8.27316 5.06115 8.50314 5.61637 8.50314 6.1953C8.50314 6.77422 8.27316 7.32944 7.8638 7.7388C7.45444 8.14816 6.89922 8.37814 6.32029 8.37814Z" fill="#F32626"/>
</svg>
