<svg width="19" height="19" viewBox="0 0 19 19" fill="none" xmlns="http://www.w3.org/2000/svg">
<path d="M8.68359 5.34375H10.3164V9.5H16.4023C16.6189 9.5 16.8265 9.41399 16.9796 9.26088C17.1327 9.10777 17.2188 8.90012 17.2188 8.68359V6.16016C17.2188 5.94363 17.1327 5.73598 16.9796 5.58287C16.8265 5.42976 16.6189 5.34375 16.4023 5.34375H14.1825C14.4831 4.72462 14.5531 4.01859 14.3799 3.35248C14.2068 2.68637 13.8018 2.10383 13.2377 1.70949C12.6736 1.31515 11.9874 1.13486 11.3023 1.201C10.6173 1.26714 9.97823 1.57537 9.5 2.07033C9.02095 1.57808 8.38246 1.27223 7.69864 1.20745C7.01482 1.14266 6.33025 1.32317 5.76728 1.7167C5.20431 2.11023 4.79964 2.69114 4.62558 3.35559C4.45152 4.02005 4.51943 4.72476 4.81717 5.34375H2.59766C2.38113 5.34375 2.17348 5.42976 2.02037 5.58287C1.86726 5.73598 1.78125 5.94363 1.78125 6.16016V8.68359C1.78125 8.90012 1.86726 9.10777 2.02037 9.26088C2.09618 9.33669 2.18618 9.39683 2.28523 9.43785C2.38428 9.47888 2.49044 9.5 2.59766 9.5H8.68359V5.34375ZM10.3164 4.08203C10.3164 3.83249 10.3904 3.58855 10.529 3.38106C10.6677 3.17357 10.8647 3.01185 11.0953 2.91636C11.3258 2.82086 11.5795 2.79587 11.8243 2.84456C12.069 2.89324 12.2938 3.01341 12.4703 3.18986C12.6467 3.36632 12.7669 3.59113 12.8156 3.83588C12.8643 4.08063 12.8393 4.33432 12.7438 4.56487C12.6483 4.79542 12.4866 4.99247 12.2791 5.13111C12.0716 5.26975 11.8277 5.34375 11.5781 5.34375H10.3164V4.08203ZM6.16016 4.08203C6.16016 3.7474 6.29309 3.42648 6.52971 3.18986C6.76632 2.95324 7.08725 2.82031 7.42188 2.82031C7.7565 2.82031 8.07743 2.95324 8.31404 3.18986C8.55066 3.42648 8.68359 3.7474 8.68359 4.08203V5.34375H7.42188C7.08725 5.34375 6.76632 5.21082 6.52971 4.9742C6.29309 4.73758 6.16016 4.41666 6.16016 4.08203Z" fill="#F32626"/>
<path d="M10.3164 17.8125H15.2148C15.4314 17.8125 15.639 17.7265 15.7921 17.5734C15.9452 17.4203 16.0312 17.2126 16.0312 16.9961V10.6875H10.3164V17.8125Z" fill="#F32626"/>
<path d="M2.96875 16.9961C2.96875 17.2126 3.05476 17.4203 3.20787 17.5734C3.36098 17.7265 3.56863 17.8125 3.78516 17.8125H8.68359V10.6875H2.96875V16.9961Z" fill="#F32626"/>
</svg>
