<svg width="24" height="24" viewBox="0 0 24 24" fill="none" xmlns="http://www.w3.org/2000/svg">
<path d="M6.7002 12C6.70394 13.1083 6.84274 14.212 7.11353 15.2867H11.4335V8.96667H7.05353C6.82307 9.96146 6.70456 10.9789 6.7002 12Z" fill="#F32626"/>
<path d="M12.5664 8.96667V15.2867H16.8864C17.1684 14.2134 17.3184 13.1097 17.3331 12C17.3309 10.9791 17.2146 9.96171 16.9864 8.96667H12.5664Z" fill="#F32626"/>
<path d="M12.0002 1.33333C9.8905 1.33333 7.82821 1.95892 6.07408 3.13099C4.31996 4.30305 2.95279 5.96896 2.14545 7.91804C1.33812 9.86712 1.12688 12.0118 1.53846 14.081C1.95003 16.1501 2.96594 18.0507 4.4577 19.5425C5.94946 21.0342 7.85007 22.0501 9.9192 22.4617C11.9883 22.8733 14.133 22.662 16.0821 21.8547C18.0312 21.0474 19.6971 19.6802 20.8692 17.9261C22.0412 16.172 22.6668 14.1097 22.6668 12C22.6668 9.17102 21.543 6.45791 19.5426 4.45752C17.5423 2.45713 14.8291 1.33333 12.0002 1.33333ZM20.1468 16.4733H17.7335C17.2772 17.9019 16.6025 19.2512 15.7335 20.4733C15.0922 20.7528 14.4212 20.9586 13.7335 21.0867C14.9652 19.7483 15.9131 18.1745 16.5202 16.46H12.5735V21.2267H11.4468V16.4733H7.48017C8.08644 18.1902 9.03441 19.7664 10.2668 21.1067C9.59327 20.98 8.93589 20.7787 8.30683 20.5067C7.43472 19.2743 6.75996 17.9135 6.30683 16.4733H3.8535C3.64053 16.0848 3.45561 15.6816 3.30017 15.2667H5.96683C5.71696 14.1955 5.58727 13.0999 5.58017 12C5.58054 10.9805 5.68779 9.96381 5.90017 8.96666H3.1735C3.3137 8.55298 3.48301 8.14975 3.68017 7.75999H6.22017C6.69676 6.17269 7.43588 4.67643 8.40683 3.33333C9.02255 3.0782 9.66406 2.89044 10.3202 2.77333C8.99395 4.19669 7.99305 5.89139 7.38683 7.73999H11.4468V2.66666H12.5735V7.75999H16.6335C16.0284 5.91435 15.0298 4.22205 13.7068 2.79999C14.3619 2.90866 15.0034 3.08746 15.6202 3.33333C16.5855 4.66673 17.3222 6.15144 17.8002 7.72666H20.3135C20.5106 8.11643 20.6799 8.51966 20.8202 8.93333H18.1135C18.3305 9.94113 18.44 10.9691 18.4402 12C18.4367 13.1063 18.3093 14.2088 18.0602 15.2867H20.7268C20.5619 15.6955 20.3681 16.092 20.1468 16.4733Z" fill="#F32626"/>
</svg>
