<svg width="34" height="34" viewBox="0 0 34 34" fill="none" xmlns="http://www.w3.org/2000/svg">
<path fill-rule="evenodd" clip-rule="evenodd" d="M4.99839 10.9004C4.50938 11.206 4.10615 11.631 3.8266 12.1354C3.54706 12.6398 3.40039 13.207 3.40039 13.7836V27.2C3.40039 28.1017 3.7586 28.9666 4.39623 29.6042C5.03385 30.2418 5.89865 30.6 6.80039 30.6H27.2004C28.1021 30.6 28.9669 30.2418 29.6046 29.6042C30.2422 28.9666 30.6004 28.1017 30.6004 27.2V13.7836C30.6004 13.207 30.4537 12.6398 30.1742 12.1354C29.8946 11.631 29.4914 11.206 29.0024 10.9004L18.8024 4.52541C18.262 4.18768 17.6376 4.00861 17.0004 4.00861C16.3632 4.00861 15.7388 4.18768 15.1984 4.52541L4.99839 10.9004ZM9.44389 15.0195C9.25815 14.8956 9.04982 14.8095 8.8308 14.7661C8.61179 14.7227 8.38637 14.7229 8.16741 14.7666C7.94846 14.8104 7.74027 14.8968 7.55472 15.021C7.36917 15.1452 7.20989 15.3047 7.08599 15.4904C6.96209 15.6762 6.87598 15.8845 6.83259 16.1035C6.7892 16.3225 6.78938 16.5479 6.8331 16.7669C6.92141 17.2091 7.18177 17.5981 7.55689 17.8483L16.0569 23.5144C16.3363 23.7008 16.6646 23.8003 17.0004 23.8003C17.3362 23.8003 17.6645 23.7008 17.9439 23.5144L26.4439 17.8483C26.819 17.5981 27.0794 17.2091 27.1677 16.7669C27.256 16.3247 27.165 15.8655 26.9148 15.4904C26.6646 15.1153 26.2756 14.8549 25.8334 14.7666C25.3912 14.6783 24.932 14.7693 24.5569 15.0195L17.0004 20.0566L9.44389 15.0195Z" fill="#F32626"/>
</svg>
