<svg width="18" height="18" viewBox="0 0 18 18" fill="none" xmlns="http://www.w3.org/2000/svg">
<path d="M13.8398 17.7497C10.3696 17.7452 7.04273 16.3647 4.58888 13.9109C2.13504 11.457 0.754498 8.13018 0.75 4.65993C0.75 3.62295 1.16194 2.62844 1.8952 1.89519C2.62845 1.16193 3.62296 0.74999 4.65994 0.74999C4.87953 0.748318 5.09875 0.768247 5.31443 0.809489C5.52294 0.840344 5.72792 0.891589 5.92642 0.962487C6.06603 1.01147 6.19044 1.09605 6.28734 1.20786C6.38424 1.31966 6.45027 1.45482 6.47892 1.59998L7.6434 6.6999C7.67479 6.83833 7.67101 6.98242 7.6324 7.11902C7.5938 7.25561 7.5216 7.38037 7.4224 7.48189C7.3119 7.60089 7.3034 7.60939 6.25792 8.15338C7.09515 9.99008 8.5641 11.4651 10.3974 12.3098C10.9499 11.2558 10.9584 11.2473 11.0773 11.1368C11.1789 11.0376 11.3036 10.9654 11.4402 10.9268C11.5768 10.8882 11.7209 10.8845 11.8593 10.9158L16.9593 12.0803C17.0998 12.1129 17.2297 12.1807 17.3367 12.2774C17.4438 12.3741 17.5245 12.4964 17.5713 12.6328C17.643 12.8346 17.697 13.0422 17.7328 13.2533C17.767 13.4669 17.784 13.683 17.7838 13.8993C17.7681 14.9318 17.3446 15.9163 16.6056 16.6377C15.8667 17.3591 14.8724 17.7588 13.8398 17.7497Z" fill="#F32626"/>
</svg>
