<svg width="29" height="29" viewBox="0 0 29 29" fill="none" xmlns="http://www.w3.org/2000/svg">
<path fill-rule="evenodd" clip-rule="evenodd" d="M18.3896 8.42085C18.4738 8.33645 18.5738 8.26949 18.6839 8.2238C18.794 8.17812 18.912 8.1546 19.0313 8.1546C19.1505 8.1546 19.2685 8.17812 19.3786 8.2238C19.4887 8.26949 19.5887 8.33645 19.6729 8.42085L25.1104 13.8583C25.1948 13.9425 25.2617 14.0425 25.3074 14.1526C25.3531 14.2627 25.3766 14.3808 25.3766 14.5C25.3766 14.6192 25.3531 14.7372 25.3074 14.8473C25.2617 14.9574 25.1948 15.0574 25.1104 15.1416L19.6729 20.5791C19.5027 20.7493 19.2719 20.8449 19.0313 20.8449C18.7906 20.8449 18.5598 20.7493 18.3896 20.5791C18.2195 20.4089 18.1239 20.1781 18.1239 19.9375C18.1239 19.6968 18.2195 19.466 18.3896 19.2958L23.1873 14.5L18.3896 9.7041C18.3052 9.61991 18.2383 9.51991 18.1926 9.40981C18.1469 9.29971 18.1234 9.18167 18.1234 9.06247C18.1234 8.94327 18.1469 8.82524 18.1926 8.71514C18.2383 8.60504 18.3052 8.50503 18.3896 8.42085Z" fill="white"/>
<path fill-rule="evenodd" clip-rule="evenodd" d="M3.625 14.5C3.625 14.2596 3.72048 14.0291 3.89043 13.8592C4.06039 13.6892 4.2909 13.5938 4.53125 13.5938H23.5625C23.8029 13.5938 24.0334 13.6892 24.2033 13.8592C24.3733 14.0291 24.4688 14.2596 24.4688 14.5C24.4688 14.7404 24.3733 14.9709 24.2033 15.1408C24.0334 15.3108 23.8029 15.4062 23.5625 15.4062H4.53125C4.2909 15.4062 4.06039 15.3108 3.89043 15.1408C3.72048 14.9709 3.625 14.7404 3.625 14.5Z" fill="white"/>
</svg>
