<svg width="22" height="22" viewBox="0 0 22 22" fill="none" xmlns="http://www.w3.org/2000/svg">
<path d="M11 22C9.51042 22 8.08529 21.71 6.72461 21.1299C5.36393 20.5498 4.19303 19.7692 3.21191 18.7881C2.23079 17.807 1.4502 16.6361 0.870117 15.2754C0.290039 13.9147 0 12.4896 0 11C0 9.51042 0.290039 8.08529 0.870117 6.72461C1.4502 5.36393 2.23079 4.19303 3.21191 3.21191C4.19303 2.23079 5.36393 1.4502 6.72461 0.870117C8.08529 0.290039 9.51042 0 11 0C12.4896 0 13.9147 0.290039 15.2754 0.870117C16.6361 1.4502 17.807 2.23079 18.7881 3.21191C19.7692 4.19303 20.5498 5.36393 21.1299 6.72461C21.71 8.08529 22 9.51042 22 11C22 12.4896 21.71 13.9147 21.1299 15.2754C20.5498 16.6361 19.7692 17.807 18.7881 18.7881C17.807 19.7692 16.6361 20.5498 15.2754 21.1299C13.9147 21.71 12.4896 22 11 22ZM13.0625 2.75H8.25C7.8776 2.75 7.55534 2.88607 7.2832 3.1582C7.01107 3.43034 6.875 3.7526 6.875 4.125V9.625H5.5C5.1276 9.625 4.80534 9.76107 4.5332 10.0332C4.26107 10.3053 4.125 10.6312 4.125 11.0107C4.125 11.3903 4.26107 11.7126 4.5332 11.9775C4.80534 12.2425 5.1276 12.375 5.5 12.375H6.875V13.75H5.5C5.1276 13.75 4.80534 13.8861 4.5332 14.1582C4.26107 14.4303 4.125 14.7562 4.125 15.1357C4.125 15.5153 4.26107 15.8376 4.5332 16.1025C4.80534 16.3675 5.1276 16.5 5.5 16.5H6.875V17.875C6.875 18.2617 7.00749 18.5876 7.27246 18.8525C7.53744 19.1175 7.8597 19.25 8.23926 19.25C8.61882 19.25 8.94466 19.1175 9.2168 18.8525C9.48893 18.5876 9.625 18.2617 9.625 17.875V16.5H12.375C12.7474 16.5 13.0697 16.3675 13.3418 16.1025C13.6139 15.8376 13.75 15.5153 13.75 15.1357C13.75 14.7562 13.6139 14.4303 13.3418 14.1582C13.0697 13.8861 12.7474 13.75 12.375 13.75H9.625V12.375H13.0625C14.3945 12.375 15.5296 11.9059 16.4678 10.9678C17.4059 10.0296 17.875 8.89453 17.875 7.5625C17.875 6.23047 17.4059 5.09538 16.4678 4.15723C15.5296 3.21908 14.3945 2.75 13.0625 2.75ZM13.0625 9.625H9.625V5.5H13.0625C13.6354 5.5 14.1224 5.70052 14.5234 6.10156C14.9245 6.5026 15.125 6.98958 15.125 7.5625C15.125 8.13542 14.9245 8.6224 14.5234 9.02344C14.1224 9.42448 13.6354 9.625 13.0625 9.625Z" fill="#F32626"/>
</svg>
