<svg width="23" height="23" viewBox="0 0 23 23" fill="none" xmlns="http://www.w3.org/2000/svg">
<g clip-path="url(#clip0)">
<path d="M16.8337 4.7382L13.2072 4.12182L11.5003 0.863281L9.79354 4.12182L6.16699 4.7382L8.73864 7.36842L8.20415 11.0079L11.5003 9.37494L14.7965 11.0079L14.2621 7.36842L16.8337 4.7382Z" fill="#F32626"/>
<path d="M6.4533 10.1097L7.62742 7.57909L4.87847 8.05476L2.83448 6.15601L2.43751 8.91749L0 10.2746L2.50363 11.5056L3.04117 14.2431L4.98547 12.2424L7.75513 12.5772L6.4533 10.1097Z" fill="#F32626"/>
<path d="M20.5628 8.91749L20.1658 6.15601L18.1218 8.05476L15.3728 7.57909L16.547 10.1097L15.2451 12.5772L18.0148 12.2424L19.9592 14.2431L20.4967 11.5056L23.0003 10.2746L20.5628 8.91749Z" fill="#F32626"/>
<path d="M10.9038 12.3381H9.52295V22.1563H10.9038V12.3381Z" fill="#F32626"/>
<path d="M6.54901 13.6264L6.38388 13.2549L5.12207 13.8157L5.2872 14.1872C5.99018 15.769 6.48118 17.4382 6.74644 19.1487L8.11099 18.9371C7.82699 17.1063 7.30145 15.3195 6.54901 13.6264Z" fill="#F32626"/>
<path d="M16.6162 13.2549L16.4511 13.6264C15.6986 15.3196 15.1731 17.1064 14.8892 18.9371L16.2537 19.1487C16.519 17.4384 17.0099 15.7691 17.713 14.1872L17.8781 13.8157L16.6162 13.2549Z" fill="#F32626"/>
<path d="M13.4775 12.3381H12.0967V22.1563H13.4775V12.3381Z" fill="#F32626"/>
<path d="M18.6888 3.71723L17.7363 4.66968L18.6888 5.62213L19.6412 4.66968L18.6888 3.71723Z" fill="#F32626"/>
<path d="M14.8265 0.843935L13.874 1.79639L14.8265 2.74884L15.7789 1.79639L14.8265 0.843935Z" fill="#F32626"/>
<path d="M4.31573 3.7226L3.36328 4.67505L4.31573 5.6275L5.26818 4.67505L4.31573 3.7226Z" fill="#F32626"/>
</g>
<defs>
<clipPath id="clip0">
<rect width="23" height="23" fill="white"/>
</clipPath>
</defs>
</svg>
