<svg width="18" height="18" viewBox="0 0 18 18" fill="none" xmlns="http://www.w3.org/2000/svg">
<path d="M8.84375 0.34375C4.14954 0.34375 0.34375 4.14954 0.34375 8.84375C0.34375 13.5306 4.15731 17.3438 8.84375 17.3438C13.5375 17.3438 17.3438 13.5375 17.3438 8.84375C17.3438 4.1569 13.5306 0.34375 8.84375 0.34375ZM13.2572 10.1514H8.35336C8.31001 10.1514 8.26844 10.1342 8.23778 10.1036C8.20713 10.0729 8.1899 10.0313 8.1899 9.98798V3.1226C8.1899 3.07924 8.20713 3.03767 8.23778 3.00701C8.26844 2.97636 8.31001 2.95913 8.35336 2.95913H9.33413C9.37749 2.95913 9.41906 2.97636 9.44972 3.00701C9.48037 3.03767 9.4976 3.07924 9.4976 3.1226V8.84375H13.2572C13.3006 8.84375 13.3421 8.86097 13.3728 8.89163C13.4035 8.92228 13.4207 8.96386 13.4207 9.00721V9.98798C13.4207 10.0313 13.4035 10.0729 13.3728 10.1036C13.3421 10.1342 13.3006 10.1514 13.2572 10.1514Z" fill="#F32626"/>
</svg>
