<svg width="30" height="30" viewBox="0 0 30 30" fill="none" xmlns="http://www.w3.org/2000/svg">
<g clip-path="url(#clip0)">
<path d="M24.4846 13.7138C24.4846 13.7138 24.8803 15.6516 24.9693 16.0575H23.2303L24.0637 13.7916C24.0534 13.8075 24.2353 13.3172 24.3393 13.0153L24.4846 13.7138ZM30 5.83314V24.1669C29.9997 24.8299 29.7362 25.4658 29.2674 25.9346C28.7985 26.4034 28.1627 26.6669 27.4996 26.6672H2.49934C1.83629 26.6669 1.20047 26.4034 0.731622 25.9346C0.262777 25.4658 -0.00072809 24.8299 -0.000976562 24.1669V5.83314C-0.00072809 5.17009 0.262777 4.53427 0.731622 4.06542C1.20047 3.59658 1.83629 3.33307 2.49934 3.33282H27.4996C28.1627 3.33307 28.7985 3.59658 29.2674 4.06542C29.7362 4.53427 29.9997 5.17009 30 5.83314ZM7.94246 18.9169L11.234 10.8338H9.02059L6.97402 16.3547L6.74996 15.2353L6.02059 11.5163C5.90059 11.0006 5.53121 10.8544 5.07277 10.8338H1.7034L1.66684 10.995C2.43847 11.1843 3.17864 11.4843 3.86434 11.8856L5.72902 18.9169H7.94246ZM12.8596 18.9272L14.1721 10.8338H12.0787L10.7718 18.9272H12.8596ZM20.1459 16.2816C20.1562 15.36 19.5937 14.6569 18.3909 14.0784C17.6568 13.7081 17.2087 13.4588 17.2087 13.0781C17.219 12.7341 17.5893 12.3797 18.4115 12.3797C18.947 12.3646 19.4791 12.4697 19.9687 12.6872L20.1562 12.7753L20.4431 11.025C19.8446 10.7959 19.2089 10.6793 18.5681 10.6809C16.5 10.6809 15.0468 11.7853 15.0365 13.3575C15.0206 14.5191 16.0781 15.165 16.8703 15.555C17.6775 15.9506 17.954 16.2113 17.954 16.56C17.9437 17.1019 17.2978 17.3513 16.6987 17.3513C15.8653 17.3513 15.4171 17.2209 14.7346 16.9191L14.459 16.7888L14.1675 18.6066C14.6568 18.8306 15.5634 19.0284 16.5009 19.0388C18.6984 19.0434 20.1309 17.955 20.1468 16.2788L20.1459 16.2816ZM27.4996 18.9272L25.8121 10.8338H24.1921C23.6925 10.8338 23.3118 10.98 23.0981 11.5059L19.9884 18.9281H22.1859C22.1859 18.9281 22.545 17.9278 22.6237 17.715H25.3115C25.3743 18.0019 25.5618 18.9281 25.5618 18.9281L27.4996 18.9272Z" fill="#F32626"/>
</g>
<defs>
<clipPath id="clip0">
<rect width="30" height="30" fill="white"/>
</clipPath>
</defs>
</svg>
