<svg width="22" height="22" viewBox="0 0 22 22" fill="none" xmlns="http://www.w3.org/2000/svg">
<g clip-path="url(#clip0)">
<path d="M14.376 0H7.62271C1.45996 0 -0.000976562 1.46094 -0.000976562 7.62369V14.377C-0.000976562 20.5398 1.45996 22.0007 7.62271 22.0007H14.376C20.5388 22.0007 21.9997 20.5398 21.9997 14.377V7.62369C21.9997 1.46094 20.5243 0 14.376 0ZM17.7599 15.6942H16.1628C15.5578 15.6942 15.3715 15.2144 14.2832 14.1116C13.3379 13.1952 12.9192 13.0735 12.6861 13.0735C12.3568 13.0735 12.2633 13.1663 12.2633 13.618V15.0611C12.2633 15.4481 12.1416 15.6805 11.1173 15.6805C9.42327 15.6805 7.54365 14.6561 6.22571 12.7476C4.23815 9.95088 3.69434 7.85606 3.69434 7.42294C3.69434 7.18988 3.78715 6.97194 4.23471 6.97194H5.83521C6.24015 6.97194 6.39415 7.15825 6.55159 7.59137C7.3429 9.87594 8.66084 11.8772 9.20465 11.8772C9.4054 11.8772 9.49821 11.7844 9.49821 11.2723V8.91275C9.43702 7.82444 8.86434 7.73094 8.86434 7.34456C8.86434 7.15825 9.01834 6.97194 9.26515 6.97194H11.7821C12.1224 6.97194 12.2475 7.15825 12.2475 7.55906V10.7422C12.2475 11.0859 12.4015 11.2076 12.4943 11.2076C12.6951 11.2076 12.867 11.0859 13.2389 10.7133C14.3884 9.42425 15.212 7.43669 15.212 7.43669C15.3193 7.20363 15.5056 6.98569 15.9105 6.98569H17.511C17.9909 6.98569 18.0981 7.2325 17.9909 7.57625C17.7901 8.50712 15.8315 11.2716 15.8315 11.2716C15.663 11.5507 15.5984 11.6724 15.8315 11.9838C16.0033 12.2169 16.5623 12.7002 16.9342 13.1333C17.6183 13.9102 18.1442 14.5619 18.2845 15.0129C18.4419 15.4605 18.2095 15.6936 17.7578 15.6936L17.7599 15.6942Z" fill="#F32626"/>
</g>
<defs>
<clipPath id="clip0">
<rect width="22" height="22" fill="white"/>
</clipPath>
</defs>
</svg>
